HIERARCHY
ROOT Hips
{
 OFFSET 0.000000 0.000000 0.000000
 CHANNELS 6 Xposition Yposition Zposition Yrotation Xrotation Zrotation
 JOINT Chest
 {
  OFFSET 0.000000 10.388337 0.005184
  CHANNELS 3 Yrotation Xrotation Zrotation
  JOINT Chest2
  {
   OFFSET 0.000000 10.458247 -0.010579
   CHANNELS 3 Yrotation Xrotation Zrotation
   JOINT Chest3
   {
    OFFSET 0.000000 10.415828 0.000000
    CHANNELS 3 Yrotation Xrotation Zrotation
    JOINT Chest4
    {
     OFFSET 0.000000 10.405206 0.000000
     CHANNELS 3 Yrotation Xrotation Zrotation
     JOINT Neck
     {
      OFFSET 0.000000 15.720090 0.000000
      CHANNELS 3 Yrotation Xrotation Zrotation
      JOINT Head
      {
       OFFSET 0.000000 9.732643 -0.022378
       CHANNELS 3 Yrotation Xrotation Zrotation
       End Site
       {
        OFFSET 0.000000 18.603619 -0.011814
       }
      }
     }
     JOINT RightCollar
     {
      OFFSET -3.167735 10.388953 0.000000
      CHANNELS 3 Yrotation Xrotation Zrotation
      JOINT RightShoulder
      {
       OFFSET -14.584825 0.000000 0.000000
       CHANNELS 3 Yrotation Xrotation Zrotation
       JOINT RightElbow
       {
        OFFSET 0.000000 -31.921689 0.000000
        CHANNELS 3 Yrotation Xrotation Zrotation
        JOINT RightWrist
        {
         OFFSET 0.000000 -25.835217 0.000000
         CHANNELS 3 Yrotation Xrotation Zrotation
         End Site
         {
          OFFSET 0.000000 -19.128920 0.000000
         }
        }
       }
      }
     }
     JOINT LeftCollar
     {
      OFFSET 3.167735 10.388953 0.000000
      CHANNELS 3 Yrotation Xrotation Zrotation
      JOINT LeftShoulder
      {
       OFFSET 14.584825 0.000000 0.000000
       CHANNELS 3 Yrotation Xrotation Zrotation
       JOINT LeftElbow
       {
        OFFSET 0.000000 -31.921689 0.000000
        CHANNELS 3 Yrotation Xrotation Zrotation
        JOINT LeftWrist
        {
         OFFSET 0.000000 -25.835217 0.000000
         CHANNELS 3 Yrotation Xrotation Zrotation
         End Site
         {
          OFFSET 0.000000 -19.128920 0.000000
         }
        }
       }
      }
     }
    }
   }
  }
 }
 JOINT RightHip
 {
  OFFSET -8.403278 -0.025659 -0.002592
  CHANNELS 3 Yrotation Xrotation Zrotation
  JOINT RightKnee
  {
   OFFSET 0.000000 -44.040977 0.002477
   CHANNELS 3 Yrotation Xrotation Zrotation
   JOINT RightAnkle
   {
    OFFSET 0.000000 -42.951162 0.004189
    CHANNELS 3 Yrotation Xrotation Zrotation
    JOINT RightToe
    {
     OFFSET 0.000000 -5.494238 12.197485
     CHANNELS 3 Yrotation Xrotation Zrotation
     End Site
     {
      OFFSET 0.000000 -1.538716 6.371628
     }
    }
   }
  }
 }
 JOINT LeftHip
 {
  OFFSET 8.403278 -0.025659 -0.002592
  CHANNELS 3 Yrotation Xrotation Zrotation
  JOINT LeftKnee
  {
   OFFSET 0.000000 -44.040977 0.002477
   CHANNELS 3 Yrotation Xrotation Zrotation
   JOINT LeftAnkle
   {
    OFFSET 0.000000 -42.951162 0.004189
    CHANNELS 3 Yrotation Xrotation Zrotation
    JOINT LeftToe
    {
     OFFSET 0.000000 -5.494238 12.197485
     CHANNELS 3 Yrotation Xrotation Zrotation
     End Site
     {
      OFFSET 0.000000 -1.538716 6.371628
     }
    }
   }
  }
 }
}
MOTION
Frames: 6
Frame Time: 0.008333
-6.710713 88.662651 318.677269 115.089649 -9.376888 -1.037306 6.666607 7.700036 -1.526022 0.165038 0.184103 -0.022851 0.290404 0.324262 -0.039846 4.007115 4.592578 -0.396123 0.700502 12.786692 8.301603 -2.023959 -11.686441 15.464779 -10.009690 3.168632 0.666750 -24.018049 0.947170 -22.053327 -138.610884 -71.490576 170.975506 -10.466596 -36.924692 -9.041298 14.528519 4.610062 12.392459 21.173351 10.665520 17.292359 138.220601 -84.290917 -157.876157 -5.357761 -12.766911 33.182994 3.638656 1.815589 7.092531 1.894382 37.304720 4.990869 -1.869741 -20.343958 -10.788173 0.645683 -6.651828 1.620435 10.944861 -31.504302 -2.154361 155.879340 42.057571 157.378267 -6.511073 -15.213381 -0.995461 3.041528 4.365209 1.123486
-4.599534 88.900035 317.334562 113.721223 -8.739811 -0.215051 8.016993 7.588724 -1.962437 0.242432 0.196559 -0.039409 0.424773 0.344824 -0.068498 5.207555 4.356333 -0.655533 0.482995 12.446513 8.690337 -2.634454 -12.246377 16.324925 -8.967636 3.077402 1.162921 -23.459833 0.201641 -22.448246 -140.739713 -71.370532 172.006403 -10.344210 -35.899366 -8.075570 15.638536 4.497866 12.870406 20.830906 11.685170 16.968228 137.079865 -84.193148 -157.134065 -5.535561 -13.065251 33.432033 4.386502 3.674738 6.145579 1.635629 35.654038 4.503196 -1.072615 -20.566651 -10.441464 0.471384 -6.988742 1.173741 11.737866 -35.496184 -2.535073 154.957031 43.346832 156.825123 -7.496071 -14.207995 -1.342240 4.144254 3.863091 1.691329
-2.494670 89.164178 315.967277 112.343211 -7.530506 0.641313 9.403918 7.081062 -2.564431 0.339574 0.200785 -0.062305 0.592125 0.350719 -0.107873 6.438410 3.959231 -0.969823 0.271151 12.118238 9.067125 -3.233114 -12.780373 17.164522 -8.060510 2.855523 1.578040 -22.631930 -0.199669 -22.958895 -143.183186 -71.310341 173.016151 -10.190664 -34.779457 -7.112916 16.772539 4.265890 13.395620 20.415769 12.675686 16.769730 135.884886 -84.194014 -156.412458 -5.753690 -13.508343 33.789294 4.975700 5.238236 5.145708 1.661232 33.429768 3.853097 -0.491670 -20.606227 -9.848415 0.351745 -7.165012 0.764686 12.476890 -39.704356 -2.752841 154.600819 45.406711 156.516908 -8.264393 -13.185764 -1.910545 5.152237 3.316819 2.272663
-0.406887 89.457776 314.533662 111.167198 -5.843657 1.615408 10.663537 6.294271 -3.478093 0.456352 0.196181 -0.093818 0.791583 0.341154 -0.161741 7.644788 3.459488 -1.354764 0.044264 11.850133 9.376499 -3.828600 -13.203657 17.879762 -7.400010 2.472830 1.888638 -21.716467 -0.345109 -23.433824 -145.552475 -71.322287 173.954134 -10.055950 -33.470614 -6.060433 17.922926 3.892051 13.997934 19.919439 13.592155 16.666841 134.001818 -84.271642 -155.056646 -5.989614 -14.043167 34.191373 5.405102 6.597633 3.965460 1.840911 30.590310 3.068646 -0.271817 -20.207378 -8.940228 0.361849 -7.405201 0.380793 13.073452 -43.946344 -3.009390 154.811791 48.133458 156.371525 -9.039557 -12.218817 -2.645322 6.203068 2.752063 2.882168
1.564533 89.772196 313.114719 109.922262 -3.074409 2.391822 12.164923 4.524381 -4.498714 0.588560 0.182891 -0.135372 1.015348 0.316754 -0.232363 8.765475 2.924821 -1.809024 -0.206654 11.700177 9.605414 -4.421010 -13.411130 18.439433 -7.020805 1.984167 2.069923 -20.846703 -0.326565 -23.793355 -147.481351 -71.383441 174.721217 -9.914099 -31.962273 -4.934542 19.051934 3.463720 14.677265 19.403422 14.403960 16.631008 131.093406 -84.358800 -152.718589 -6.226187 -14.604886 34.594023 6.197212 7.488026 2.713693 2.105166 26.258377 2.159999 0.538505 -19.628145 -7.466506 -0.272406 -6.789075 -0.387051 13.771211 -48.876301 -3.275497 155.271698 51.333167 156.122581 -9.289910 -11.599420 -3.365947 6.662258 2.553839 3.241977
3.685355 90.124061 311.609244 109.959574 -0.957288 2.860733 12.527593 3.313371 -5.218443 0.730113 0.159787 -0.186938 1.252756 0.275978 -0.319509 9.769165 2.378492 -2.317657 -0.474997 11.682242 9.774218 -5.000745 -13.377213 18.874398 -6.835266 1.497892 2.128246 -20.179793 -0.230800 -24.074482 -148.636069 -71.466478 175.122269 -9.702145 -30.323094 -3.824483 20.124328 3.110713 15.439903 18.982219 15.125866 16.668038 127.474644 -84.375903 -149.737061 -6.443241 -15.151903 34.989613 5.936516 10.244400 1.875025 2.371583 19.752827 1.189929 0.602027 -18.375662 -5.854301 -0.328895 -6.271544 -1.065427 12.647637 -52.910071 -2.971992 155.594491 54.845817 155.477060 -8.762212 -10.978352 -4.080484 6.246105 2.508354 3.209890
